<svg xmlns="http://www.w3.org/2000/svg" xmlns:svg="http://www.w3.org/2000/svg" xmlns:xlink="http://www.w3.org/1999/xlink" style="display:inline;enable-background:new" id="svg11300" width="192" height="152" version="1.0" viewBox="0 0 192 152"><title id="title4162">Adwaita Icon Template</title><defs id="defs3"><linearGradient id="linearGradient1400"><stop style="stop-color:#deddda;stop-opacity:1" id="stop1396" offset="0"/><stop id="stop1404" offset=".5" style="stop-color:#f6f5f4;stop-opacity:1"/><stop style="stop-color:#deddda;stop-opacity:1" id="stop1398" offset="1"/></linearGradient><linearGradient id="linearGradient1599"><stop style="stop-color:#9a9996;stop-opacity:1" id="stop1593" offset="0"/><stop id="stop1595" offset=".458" style="stop-color:#deddda;stop-opacity:1"/><stop style="stop-color:#9a9996;stop-opacity:1" id="stop1597" offset="1"/></linearGradient><linearGradient id="linearGradient1579"><stop id="stop1575" offset="0" style="stop-color:#865e3c;stop-opacity:1"/><stop style="stop-color:#b5835a;stop-opacity:1" id="stop1583" offset=".5"/><stop id="stop1577" offset="1" style="stop-color:#865e3c;stop-opacity:1"/></linearGradient><linearGradient id="linearGradient1532"><stop id="stop1528" offset="0" style="stop-color:#5e5c64;stop-opacity:1"/><stop id="stop1530" offset="1" style="stop-color:#9a9996;stop-opacity:1"/></linearGradient><linearGradient id="linearGradient1508" x1="18" x2="114" y1="104" y2="104" gradientUnits="userSpaceOnUse" xlink:href="#linearGradient1599"/><linearGradient id="linearGradient1534" x1="80" x2="116" y1="106" y2="106" gradientUnits="userSpaceOnUse" xlink:href="#linearGradient1532"/><linearGradient id="linearGradient1581" x1="50" x2="94" y1="67.751" y2="67.751" gradientUnits="userSpaceOnUse" xlink:href="#linearGradient1579"/><linearGradient id="linearGradient1402" x1="17.921" x2="142.317" y1="43.996" y2="107.847" gradientUnits="userSpaceOnUse" xlink:href="#linearGradient1400"/></defs><metadata id="metadata4"/><g style="display:inline" id="layer1" transform="translate(8,-156)"><g style="display:inline" id="layer4"><rect style="display:inline;overflow:visible;visibility:visible;fill:#f0f0f0;fill-opacity:0;fill-rule:nonzero;stroke:none;stroke-width:.5;marker:none;enable-background:accumulate" id="hicolor" width="128" height="128" x="0" y="172"/><rect id="symbolic" width="16" height="16" x="160" y="172" style="display:inline;overflow:visible;visibility:visible;fill:#f0f0f0;fill-opacity:0;fill-rule:nonzero;stroke:none;stroke-width:.5;marker:none;enable-background:accumulate"/></g><g style="display:none" id="layer2"><rect id="128" width="128" height="128" x="0" y="172" style="display:inline;overflow:visible;visibility:visible;fill:#f0f0f0;fill-opacity:1;fill-rule:nonzero;stroke:none;stroke-width:.5;marker:none;enable-background:accumulate"/><rect style="display:inline;overflow:visible;visibility:visible;fill:#f0f0f0;fill-opacity:1;fill-rule:nonzero;stroke:none;stroke-width:.5;marker:none;enable-background:accumulate" id="16" width="16" height="16" x="160" y="172"/><text id="text863" x="0" y="167" xml:space="preserve" style="font-style:normal;font-variant:normal;font-weight:700;font-stretch:normal;font-size:4px;line-height:125%;font-family:Cantarell;-inkscape-font-specification:'Cantarell, Bold';text-align:start;writing-mode:lr-tb;text-anchor:start;display:inline;fill:#000;fill-opacity:1;stroke:none;stroke-width:.332649;enable-background:new"><tspan id="tspan861" x="0" y="167" style="font-size:4px;stroke-width:.332649">Hicolor</tspan></text><text style="font-style:normal;font-variant:normal;font-weight:700;font-stretch:normal;font-size:4px;line-height:125%;font-family:Cantarell;-inkscape-font-specification:'Cantarell, Bold';text-align:start;writing-mode:lr-tb;text-anchor:start;display:inline;fill:#000;fill-opacity:1;stroke:none;stroke-width:.332649;enable-background:new" id="text867" x="160" y="167" xml:space="preserve"><tspan style="font-size:4px;stroke-width:.332649" id="tspan865" x="160" y="167">Symbolic</tspan></text></g><g style="display:inline" id="layer9"><path style="fill:url(#linearGradient1534);stroke-width:21.0539;stroke-linecap:round;stroke-linejoin:round;fill-opacity:1" id="circle1358" d="M 104 72 L 104 86 L 104 104 L 72 104 L 72 140 A 54 54 0 0 0 126 86 L 126 72 L 104 72 z" transform="translate(-8,156)"/><path style="fill:url(#linearGradient1581);stroke-width:21.0539;stroke-linecap:round;stroke-linejoin:round;fill-opacity:1" id="circle1387" d="M 72 52 A 22 22 0 0 0 50 74 A 22 22 0 0 0 52.158203 83.501953 A 20 20 0 0 1 72 66 A 20 20 0 0 1 91.84375 83.498047 A 22 22 0 0 0 94 74 A 22 22 0 0 0 72 52 z" transform="translate(-8,156)"/><path style="fill:url(#linearGradient1508);fill-opacity:1;stroke:none;stroke-width:6;stroke-linecap:round;stroke-linejoin:round" id="rect1362" d="m 18,72 v 14 c 9.2e-5,14.32165 5.689422,28.0567 15.816406,38.18359 C 43.943299,134.31058 57.678344,139.99991 72,140 h 54 l -3,-3 3,-3 -3,-3 3,-3 H 72 V 104 H 40 V 86 72 Z" transform="translate(-8,156)"/><path style="fill:url(#linearGradient1402);stroke-width:21.0539;stroke-linecap:round;stroke-linejoin:round;fill-opacity:1" id="path1348" d="M 71.833984 20 A 54 54 0 0 0 18 74 A 54 54 0 0 0 72 128 A 54 54 0 0 0 126 74 A 54 54 0 0 0 72 20 A 54 54 0 0 0 71.833984 20 z M 72 52 A 22 22 0 0 1 94 74 A 22 22 0 0 1 72 96 A 22 22 0 0 1 50 74 A 22 22 0 0 1 72 52 z" transform="translate(-8,156)"/><circle style="fill:none;stroke:#cdab8f;stroke-width:6;stroke-linecap:round;stroke-linejoin:round" id="circle1354" cx="64" cy="230" r="23"/><path style="fill:#c0bfbc;stroke-width:21.0539;stroke-linecap:round;stroke-linejoin:round" id="path1537" d="m 18.009766,73 c -0.0063,0.333296 -0.0096,0.666644 -0.0098,1 0,29.82338 24.176624,54 54,54 29.82338,0 54,-24.17662 54,-54 -1.7e-4,-0.333356 -0.003,-0.666704 -0.01,-1 C 125.44517,102.42833 101.43338,125.99972 72,126 42.566622,125.99972 18.554829,102.42833 18.009766,73 Z" transform="translate(-8,156)"/></g><g style="display:none" id="layer3"><circle style="display:inline;opacity:.1;vector-effect:none;fill:none;fill-opacity:1;stroke:#000;stroke-width:.99;stroke-linecap:butt;stroke-linejoin:miter;stroke-miterlimit:4;stroke-dasharray:.99,.99;stroke-dashoffset:0;stroke-opacity:1;marker:none;marker-start:none;marker-mid:none;marker-end:none;paint-order:normal;enable-background:new" id="circle2892" cx="64" cy="236" r="59.504"/><rect style="display:inline;opacity:.1;vector-effect:none;fill:none;fill-opacity:1;stroke:#000;stroke-width:.99;stroke-linecap:butt;stroke-linejoin:miter;stroke-miterlimit:4;stroke-dasharray:.99,.99;stroke-dashoffset:0;stroke-opacity:1;marker:none;marker-start:none;marker-mid:none;marker-end:none;paint-order:normal;enable-background:new" id="rect2894" width="87.01" height="111.01" x="20.495" y="180.495" rx="8.701" ry="7.929"/><rect style="display:inline;opacity:.1;vector-effect:none;fill:none;fill-opacity:1;stroke:#000;stroke-width:.99;stroke-linecap:butt;stroke-linejoin:miter;stroke-miterlimit:4;stroke-dasharray:.99,.99;stroke-dashoffset:0;stroke-opacity:1;marker:none;marker-start:none;marker-mid:none;marker-end:none;paint-order:normal;enable-background:new" id="rect2896" width="103.01" height="103.01" x="12.495" y="184.495" rx="7.924" ry="7.924"/><rect style="display:inline;opacity:.1;vector-effect:none;fill:none;fill-opacity:1;stroke:#000;stroke-width:.99;stroke-linecap:butt;stroke-linejoin:miter;stroke-miterlimit:4;stroke-dasharray:.99,.99;stroke-dashoffset:0;stroke-opacity:1;marker:none;marker-start:none;marker-mid:none;marker-end:none;paint-order:normal;enable-background:new" id="rect2898" width="111.01" height="87.01" x="8.495" y="200.495" rx="7.929" ry="8.701"/><path style="display:inline;fill:none;stroke:#62a0ea;stroke-width:2;stroke-linecap:butt;stroke-linejoin:miter;stroke-miterlimit:4;stroke-dasharray:none;stroke-opacity:1;enable-background:new" id="path2900" d="M 2.6203015e-5,288.99999 H 128.00003"/></g></g><path id="path1438" d="M 176 18 A 6 6 0 0 0 170 24 A 6 6 0 0 0 176 30 A 6 6 0 0 0 182 24 A 6 6 0 0 0 176 18 z M 175.95117 22 A 2 2 0 0 1 176 22 A 2 2 0 0 1 178 24 A 2 2 0 0 1 176 26 A 2 2 0 0 1 174 24 A 2 2 0 0 1 175.95117 22 z" style="fill:#77767b;fill-opacity:1;stroke:none;stroke-width:4;stroke-linecap:round;stroke-linejoin:round"/><path id="rect1409" d="M 181.4707 28 A 6 6 0 0 1 177 30 L 183 30 L 183 28 L 181.4707 28 z M 177 30 A 6 6 0 0 1 176 29.916016 L 176 30 L 177 30 z" style="fill:#77767b;fill-opacity:1;stroke:none;stroke-width:4;stroke-linecap:round;stroke-linejoin:round"/></svg>