<svg xmlns="http://www.w3.org/2000/svg" xmlns:xlink="http://www.w3.org/1999/xlink" width="128" height="128" version="1.1" viewBox="0 0 128 128"><defs><linearGradient id="linear0" x1="80" x2="116" y1="106" y2="106" gradientTransform="matrix(1,0,0,1,-8,-16)" gradientUnits="userSpaceOnUse"><stop offset="0" style="stop-color:#5e5c64;stop-opacity:1"/><stop offset="1" style="stop-color:#9a9996;stop-opacity:1"/></linearGradient><linearGradient id="linear1" x1="50" x2="94" y1="67.751" y2="67.751" gradientTransform="matrix(1,0,0,1,-8,-16)" gradientUnits="userSpaceOnUse"><stop offset="0" style="stop-color:#865e3c;stop-opacity:1"/><stop offset=".5" style="stop-color:#b5835a;stop-opacity:1"/><stop offset="1" style="stop-color:#865e3c;stop-opacity:1"/></linearGradient><linearGradient id="linear2" x1="18" x2="114" y1="104" y2="104" gradientTransform="matrix(1,0,0,1,-8,-16)" gradientUnits="userSpaceOnUse"><stop offset="0" style="stop-color:#9a9996;stop-opacity:1"/><stop offset=".458" style="stop-color:#deddda;stop-opacity:1"/><stop offset="1" style="stop-color:#9a9996;stop-opacity:1"/></linearGradient><linearGradient id="linear3" x1="17.921" x2="142.317" y1="43.996" y2="107.847" gradientTransform="matrix(1,0,0,1,-8,-16)" gradientUnits="userSpaceOnUse"><stop offset="0" style="stop-color:#deddda;stop-opacity:1"/><stop offset=".5" style="stop-color:#f6f5f4;stop-opacity:1"/><stop offset="1" style="stop-color:#deddda;stop-opacity:1"/></linearGradient><linearGradient id="linear4" x1="80" x2="116" y1="106" y2="106" gradientTransform="matrix(1,0,0,1,-8,-16)" gradientUnits="userSpaceOnUse"><stop offset="0" style="stop-color:#5e5c64;stop-opacity:1"/><stop offset="1" style="stop-color:#9a9996;stop-opacity:1"/></linearGradient><linearGradient id="linear5" x1="50" x2="94" y1="67.751" y2="67.751" gradientTransform="matrix(1,0,0,1,-8,-16)" gradientUnits="userSpaceOnUse"><stop offset="0" style="stop-color:#865e3c;stop-opacity:1"/><stop offset=".5" style="stop-color:#b5835a;stop-opacity:1"/><stop offset="1" style="stop-color:#865e3c;stop-opacity:1"/></linearGradient><linearGradient id="linear6" x1="18" x2="114" y1="104" y2="104" gradientTransform="matrix(1,0,0,1,-8,-16)" gradientUnits="userSpaceOnUse"><stop offset="0" style="stop-color:#9a9996;stop-opacity:1"/><stop offset=".458" style="stop-color:#deddda;stop-opacity:1"/><stop offset="1" style="stop-color:#9a9996;stop-opacity:1"/></linearGradient><linearGradient id="linear7" x1="17.921" x2="142.317" y1="43.996" y2="107.847" gradientTransform="matrix(1,0,0,1,-8,-16)" gradientUnits="userSpaceOnUse"><stop offset="0" style="stop-color:#deddda;stop-opacity:1"/><stop offset=".5" style="stop-color:#f6f5f4;stop-opacity:1"/><stop offset="1" style="stop-color:#deddda;stop-opacity:1"/></linearGradient><clipPath id="clip2"><rect width="128" height="128" x="0" y="0"/></clipPath><g id="surface1131" clip-path="url(#clip2)"><path style="stroke:none;fill-rule:nonzero;fill:url(#linear4)" d="M 96 56 L 96 88 L 64 88 L 64 124 C 93.824219 124 118 99.824219 118 70 L 118 56 Z M 96 56"/><path style="stroke:none;fill-rule:nonzero;fill:url(#linear5)" d="M 64 36 C 51.851562 36 42 45.851562 42 58 C 42 61.289062 42.738281 64.535156 44.15625 67.5 C 45.417969 57.5 53.921875 50 64 50 C 74.078125 50 82.582031 57.5 83.84375 67.5 C 85.261719 64.53125 86 61.289062 86 58 C 86 45.851562 76.148438 36 64 36 Z M 64 36"/><path style="stroke:none;fill-rule:nonzero;fill:url(#linear6)" d="M 10 56 L 10 70 C 10 84.320312 15.6875 98.058594 25.816406 108.183594 C 35.941406 118.3125 49.679688 124 64 124 L 118 124 L 115 121 L 118 118 L 115 115 L 118 112 L 64 112 L 64 88 L 32 88 L 32 56 Z M 10 56"/><path style="stroke:none;fill-rule:nonzero;fill:url(#linear7)" d="M 63.832031 4 C 34.074219 4.089844 10 28.242188 10 58 C 10 87.824219 34.175781 112 64 112 C 93.824219 112 118 87.824219 118 58 C 118 28.175781 93.824219 4 64 4 C 63.945312 4 63.890625 4 63.832031 4 Z M 64 36 C 76.148438 36 86 45.851562 86 58 C 86 70.148438 76.148438 80 64 80 C 51.851562 80 42 70.148438 42 58 C 42 45.851562 51.851562 36 64 36 Z M 64 36"/><path style="fill:none;stroke-width:6;stroke-linecap:round;stroke-linejoin:round;stroke:#cdab8f;stroke-opacity:1;stroke-miterlimit:4" d="M 87 230 C 87 242.703125 76.703125 253 64 253 C 51.296875 253 41 242.703125 41 230 C 41 217.296875 51.296875 207 64 207 C 76.703125 207 87 217.296875 87 230 Z M 87 230" transform="matrix(1,0,0,1,0,-172)"/><path style="stroke:none;fill-rule:nonzero;fill:#c0bfbc;fill-opacity:1" d="M 10.011719 57 C 10.003906 57.332031 10 57.667969 10 58 C 10 87.824219 34.175781 112 64 112 C 93.824219 112 118 87.824219 118 58 C 118 57.667969 117.996094 57.332031 117.988281 57 C 117.445312 86.429688 93.433594 110 64 110 C 34.566406 110 10.554688 86.429688 10.011719 57 Z M 10.011719 57"/></g><clipPath id="clip1"><rect width="128" height="128" x="0" y="0"/></clipPath><filter id="alpha" width="100%" height="100%" x="0%" y="0%" filterUnits="objectBoundingBox"><feColorMatrix in="SourceGraphic" type="matrix" values="0 0 0 0 1 0 0 0 0 1 0 0 0 0 1 0 0 0 1 0"/></filter><g id="surface1134" clip-path="url(#clip1)" filter="url(#alpha)"><use xlink:href="#surface1131"/></g><mask id="mask0"><use xlink:href="#surface1134"/></mask><mask id="mask1"><g filter="url(#alpha)"><rect width="128" height="128" x="0" y="0" style="fill:#000;fill-opacity:.8;stroke:none"/></g></mask><linearGradient id="linear8" x1="300" x2="428" y1="235" y2="235" gradientTransform="matrix(0.000000000000000023,0.37,-0.98462,0.00000000000000006,295.38501,-30.360001)" gradientUnits="userSpaceOnUse"><stop offset="0" style="stop-color:#f9f06b;stop-opacity:1"/><stop offset="1" style="stop-color:#f5c211;stop-opacity:1"/></linearGradient><clipPath id="clip4"><rect width="128" height="128" x="0" y="0"/></clipPath><g id="surface1128" clip-path="url(#clip4)"><path style="stroke:none;fill-rule:nonzero;fill:url(#linear8)" d="M 128 80.640625 L 128 128 L 0 128 L 0 80.640625 Z M 128 80.640625"/><path style="stroke:none;fill-rule:nonzero;fill:#000;fill-opacity:1" d="M 13.308594 80.640625 L 60.664062 128 L 81.878906 128 L 34.519531 80.640625 Z M 55.730469 80.640625 L 103.09375 128 L 124.308594 128 L 76.945312 80.640625 Z M 98.160156 80.640625 L 128 110.480469 L 128 89.269531 L 119.371094 80.640625 Z M 0 88.546875 L 0 109.761719 L 18.238281 128 L 39.453125 128 Z M 0 88.546875"/></g><clipPath id="clip3"><rect width="128" height="128" x="0" y="0"/></clipPath><g id="surface1133" clip-path="url(#clip3)"><use mask="url(#mask1)" xlink:href="#surface1128"/></g></defs><g id="surface1121"><path style="stroke:none;fill-rule:nonzero;fill:url(#linear0)" d="M 96 56 L 96 88 L 64 88 L 64 124 C 93.824219 124 118 99.824219 118 70 L 118 56 Z M 96 56"/><path style="stroke:none;fill-rule:nonzero;fill:url(#linear1)" d="M 64 36 C 51.851562 36 42 45.851562 42 58 C 42 61.289062 42.738281 64.535156 44.15625 67.5 C 45.417969 57.5 53.921875 50 64 50 C 74.078125 50 82.582031 57.5 83.84375 67.5 C 85.261719 64.53125 86 61.289062 86 58 C 86 45.851562 76.148438 36 64 36 Z M 64 36"/><path style="stroke:none;fill-rule:nonzero;fill:url(#linear2)" d="M 10 56 L 10 70 C 10 84.320312 15.6875 98.058594 25.816406 108.183594 C 35.941406 118.3125 49.679688 124 64 124 L 118 124 L 115 121 L 118 118 L 115 115 L 118 112 L 64 112 L 64 88 L 32 88 L 32 56 Z M 10 56"/><path style="stroke:none;fill-rule:nonzero;fill:url(#linear3)" d="M 63.832031 4 C 34.074219 4.089844 10 28.242188 10 58 C 10 87.824219 34.175781 112 64 112 C 93.824219 112 118 87.824219 118 58 C 118 28.175781 93.824219 4 64 4 C 63.945312 4 63.890625 4 63.832031 4 Z M 64 36 C 76.148438 36 86 45.851562 86 58 C 86 70.148438 76.148438 80 64 80 C 51.851562 80 42 70.148438 42 58 C 42 45.851562 51.851562 36 64 36 Z M 64 36"/><path style="fill:none;stroke-width:6;stroke-linecap:round;stroke-linejoin:round;stroke:#cdab8f;stroke-opacity:1;stroke-miterlimit:4" d="M 87 230 C 87 242.703125 76.703125 253 64 253 C 51.296875 253 41 242.703125 41 230 C 41 217.296875 51.296875 207 64 207 C 76.703125 207 87 217.296875 87 230 Z M 87 230" transform="matrix(1,0,0,1,0,-172)"/><path style="stroke:none;fill-rule:nonzero;fill:#c0bfbc;fill-opacity:1" d="M 10.011719 57 C 10.003906 57.332031 10 57.667969 10 58 C 10 87.824219 34.175781 112 64 112 C 93.824219 112 118 87.824219 118 58 C 118 57.667969 117.996094 57.332031 117.988281 57 C 117.445312 86.429688 93.433594 110 64 110 C 34.566406 110 10.554688 86.429688 10.011719 57 Z M 10.011719 57"/><use mask="url(#mask0)" xlink:href="#surface1133"/></g></svg>